<?xml version="1.0"?>
<svg width="256" height="282" xmlns="http://www.w3.org/2000/svg" xmlns:svg="http://www.w3.org/2000/svg" preserveAspectRatio="xMinYMin meet">
 <g>
  <title>Layer 1</title>
  <g stroke="null" id="svg_1" fill="#8CC84B">
   <path fill="#ffffff" stroke="null" id="svg_2" d="m118.315488,3.58c6.470433,-3.985 14.898168,-4.003 21.363025,0c32.524104,19.774 65.058431,39.517 97.576959,59.303c6.116335,3.707 10.207522,11.031 10.145253,18.614l0,118.968c0.04554,7.897 -4.449933,15.396 -10.902708,19.019c-32.417224,19.665 -64.817718,39.354 -97.229366,59.019c-6.604266,4.063 -15.20115,3.75 -21.599091,-0.646c-9.718661,-6.062 -19.454052,-12.094 -29.173643,-18.15c-1.986113,-1.274 -4.22502,-2.288 -5.627474,-4.36c1.23981,-1.798 3.456412,-2.022 5.257576,-2.807c4.0568,-1.388 7.782736,-3.616 11.509601,-5.778c0.942404,-0.694 2.092993,-0.428 2.996363,0.193c8.310631,5.127 16.54784,10.403 24.886353,15.481c1.778858,1.105 3.580021,-0.362 5.100508,-1.274c31.81126,-19.345 63.661554,-38.617 95.467237,-57.968c1.17847,-0.61 1.829975,-1.956 1.734247,-3.345c0.022305,-39.245 0.005576,-78.497 0.011153,-117.742c0.134762,-1.576 -0.712844,-3.025 -2.037229,-3.67c-32.304767,-19.575 -64.592805,-39.18 -96.891996,-58.76a3.365332,3.621 0 0 0 -3.804934,-0.006c-32.299191,19.586 -64.581653,39.209 -96.880844,58.783c-1.319738,0.646 -2.205449,2.071 -2.048382,3.653c0.005576,39.245 0,78.497 0,117.748a3.093949,3.329 0 0 0 1.756553,3.303c8.61919,5.259 17.249532,10.481 25.874298,15.722c4.858866,2.814 10.824639,4.486 16.177942,2.33c4.724104,-1.823 8.035531,-7.01 7.94538,-12.407c0.044611,-39.016 -0.022305,-78.038 0.033458,-117.048c-0.118033,-1.732 1.40896,-3.163 2.974057,-3c4.141375,-0.03 8.288326,-0.06 12.4297,0.012c1.728671,-0.042 2.918294,1.823 2.704533,3.568c-0.016729,39.263 0.044611,78.527 -0.027882,117.79c0.011153,10.464 -3.984307,21.85 -12.979901,26.97c-11.082081,6.177 -24.779473,4.867 -35.727721,-1.056c-9.477949,-5.09 -18.5228,-11.097 -27.832529,-16.55c-6.469504,-3.603 -10.942672,-11.132 -10.897132,-19.023l0,-118.969c-0.067846,-7.74 4.185986,-15.197 10.492846,-18.85c32.411647,-19.681 64.817718,-39.377 97.22379,-59.067z"/>
   <path fill="#ffffff" stroke="null" id="svg_3" d="m146.591337,85.99c14.136066,-0.979 29.26937,-0.58 41.98997,6.913c9.848776,5.742 15.30896,17.793 15.482756,29.566c-0.2751,1.588 -1.817892,2.464 -3.226852,2.355c-4.101411,-0.006 -8.203751,0.06 -12.305162,-0.03c-1.739823,0.072 -2.751003,-1.654 -2.96941,-3.309c-1.17847,-5.633 -4.033565,-11.212 -8.961206,-13.929c-7.564329,-4.075 -16.335009,-3.87 -24.583371,-3.785c-6.021536,0.344 -12.496617,0.905 -17.598054,4.715c-3.916462,2.886 -5.106085,8.712 -3.708278,13.404c1.317879,3.369 4.932288,4.456 7.889616,5.458c17.035772,4.794 35.088299,4.317 51.798783,10.626c6.918401,2.572 13.68624,7.572 16.054333,15.366c3.097666,10.446 1.739823,22.932 -5.167424,31.318c-5.601451,6.901 -13.759662,10.657 -21.896496,12.697c-10.824639,2.597 -22.058211,2.663 -33.05107,1.51c-10.336708,-1.268 -21.093501,-4.19 -29.073268,-11.768c-6.823603,-6.375 -10.156405,-16.308 -9.825542,-25.895c0.078998,-1.619 1.57718,-2.748 3.018668,-2.615c4.130222,-0.036 8.260444,-0.048 12.390666,0.006c1.649672,-0.127 2.872753,1.407 2.957328,3.08c0.762102,5.367 2.636688,11 6.986246,14.182c8.394277,5.827 18.927086,5.428 28.538867,5.591c7.963038,-0.38 16.901939,-0.495 23.400254,-6.158c3.42853,-3.23 4.444357,-8.634 3.517752,-13.283c-1.003744,-3.925 -4.819831,-5.754 -8.096871,-6.95c-16.817364,-5.724 -35.07157,-3.647 -51.72629,-10.12c-6.761333,-2.571 -13.299612,-7.432 -15.897265,-14.906c-3.624632,-10.578 -1.963807,-23.662 5.667438,-31.765c7.440719,-8.06 18.181713,-11.164 28.393882,-12.275l0,0.001z"/>
  </g>
 </g>
</svg>